<svg id="visual" viewBox="0 0 960 540" width="960" height="540" xmlns="http://www.w3.org/2000/svg" xmlns:xlink="http://www.w3.org/1999/xlink" version="1.1"><rect x="0" y="0" width="960" height="540" fill="#001220"></rect><path d="M0 388L11.5 387.2C23 386.3 46 384.7 68.8 376.5C91.7 368.3 114.3 353.7 137.2 350.5C160 347.3 183 355.7 205.8 353.2C228.7 350.7 251.3 337.3 274.2 336C297 334.7 320 345.3 342.8 346.5C365.7 347.7 388.3 339.3 411.2 339.3C434 339.3 457 347.7 480 356.7C503 365.7 526 375.3 548.8 374.7C571.7 374 594.3 363 617.2 353.8C640 344.7 663 337.3 685.8 336.2C708.7 335 731.3 340 754.2 349.7C777 359.3 800 373.7 822.8 376C845.7 378.3 868.3 368.7 891.2 364.8C914 361 937 363 948.5 364L960 365L960 541L948.5 541C937 541 914 541 891.2 541C868.3 541 845.7 541 822.8 541C800 541 777 541 754.2 541C731.3 541 708.7 541 685.8 541C663 541 640 541 617.2 541C594.3 541 571.7 541 548.8 541C526 541 503 541 480 541C457 541 434 541 411.2 541C388.3 541 365.7 541 342.8 541C320 541 297 541 274.2 541C251.3 541 228.7 541 205.8 541C183 541 160 541 137.2 541C114.3 541 91.7 541 68.8 541C46 541 23 541 11.5 541L0 541Z" fill="#66e9e5"></path><path d="M0 393L11.5 396C23 399 46 405 68.8 407C91.7 409 114.3 407 137.2 407.5C160 408 183 411 205.8 402.8C228.7 394.7 251.3 375.3 274.2 370.7C297 366 320 376 342.8 383.7C365.7 391.3 388.3 396.7 411.2 401.5C434 406.3 457 410.7 480 410.3C503 410 526 405 548.8 402.5C571.7 400 594.3 400 617.2 399.5C640 399 663 398 685.8 391.2C708.7 384.3 731.3 371.7 754.2 371.7C777 371.7 800 384.3 822.8 388.3C845.7 392.3 868.3 387.7 891.2 387.7C914 387.7 937 392.3 948.5 394.7L960 397L960 541L948.5 541C937 541 914 541 891.2 541C868.3 541 845.7 541 822.8 541C800 541 777 541 754.2 541C731.3 541 708.7 541 685.8 541C663 541 640 541 617.2 541C594.3 541 571.7 541 548.8 541C526 541 503 541 480 541C457 541 434 541 411.2 541C388.3 541 365.7 541 342.8 541C320 541 297 541 274.2 541C251.3 541 228.7 541 205.8 541C183 541 160 541 137.2 541C114.3 541 91.7 541 68.8 541C46 541 23 541 11.5 541L0 541Z" fill="#2fcee4"></path><path d="M0 415L11.5 418C23 421 46 427 68.8 423.8C91.7 420.7 114.3 408.3 137.2 407C160 405.7 183 415.3 205.8 416.3C228.7 417.3 251.3 409.7 274.2 409.7C297 409.7 320 417.3 342.8 421.7C365.7 426 388.3 427 411.2 423C434 419 457 410 480 410C503 410 526 419 548.8 416.7C571.7 414.3 594.3 400.7 617.2 399.3C640 398 663 409 685.8 412.7C708.7 416.3 731.3 412.7 754.2 414.3C777 416 800 423 822.8 422.8C845.7 422.7 868.3 415.3 891.2 411C914 406.7 937 405.3 948.5 404.7L960 404L960 541L948.5 541C937 541 914 541 891.2 541C868.3 541 845.7 541 822.8 541C800 541 777 541 754.2 541C731.3 541 708.7 541 685.8 541C663 541 640 541 617.2 541C594.3 541 571.7 541 548.8 541C526 541 503 541 480 541C457 541 434 541 411.2 541C388.3 541 365.7 541 342.8 541C320 541 297 541 274.2 541C251.3 541 228.7 541 205.8 541C183 541 160 541 137.2 541C114.3 541 91.7 541 68.8 541C46 541 23 541 11.5 541L0 541Z" fill="#00b3df"></path><path d="M0 450L11.5 446.5C23 443 46 436 68.8 433.2C91.7 430.3 114.3 431.7 137.2 432.8C160 434 183 435 205.8 435C228.7 435 251.3 434 274.2 433.2C297 432.3 320 431.7 342.8 430.5C365.7 429.3 388.3 427.7 411.2 433.3C434 439 457 452 480 452.3C503 452.7 526 440.3 548.8 436.2C571.7 432 594.3 436 617.2 436C640 436 663 432 685.8 430.7C708.7 429.3 731.3 430.7 754.2 435.8C777 441 800 450 822.8 453.7C845.7 457.3 868.3 455.7 891.2 456.7C914 457.7 937 461.3 948.5 463.2L960 465L960 541L948.5 541C937 541 914 541 891.2 541C868.3 541 845.7 541 822.8 541C800 541 777 541 754.2 541C731.3 541 708.7 541 685.8 541C663 541 640 541 617.2 541C594.3 541 571.7 541 548.8 541C526 541 503 541 480 541C457 541 434 541 411.2 541C388.3 541 365.7 541 342.8 541C320 541 297 541 274.2 541C251.3 541 228.7 541 205.8 541C183 541 160 541 137.2 541C114.3 541 91.7 541 68.8 541C46 541 23 541 11.5 541L0 541Z" fill="#0095d4"></path><path d="M0 471L11.5 469.5C23 468 46 465 68.8 466.2C91.7 467.3 114.3 472.7 137.2 476.7C160 480.7 183 483.3 205.8 484C228.7 484.7 251.3 483.3 274.2 479.3C297 475.3 320 468.7 342.8 468C365.7 467.3 388.3 472.7 411.2 474.8C434 477 457 476 480 473.7C503 471.3 526 467.7 548.8 469.8C571.7 472 594.3 480 617.2 483.7C640 487.3 663 486.7 685.8 482C708.7 477.3 731.3 468.7 754.2 469.2C777 469.7 800 479.3 822.8 483.2C845.7 487 868.3 485 891.2 483C914 481 937 479 948.5 478L960 477L960 541L948.5 541C937 541 914 541 891.2 541C868.3 541 845.7 541 822.8 541C800 541 777 541 754.2 541C731.3 541 708.7 541 685.8 541C663 541 640 541 617.2 541C594.3 541 571.7 541 548.8 541C526 541 503 541 480 541C457 541 434 541 411.2 541C388.3 541 365.7 541 342.8 541C320 541 297 541 274.2 541C251.3 541 228.7 541 205.8 541C183 541 160 541 137.2 541C114.3 541 91.7 541 68.8 541C46 541 23 541 11.5 541L0 541Z" fill="#0077c4"></path><path d="M0 488L11.5 488.2C23 488.3 46 488.7 68.8 488.5C91.7 488.3 114.3 487.7 137.2 491.7C160 495.7 183 504.3 205.8 507C228.7 509.7 251.3 506.3 274.2 504C297 501.7 320 500.3 342.8 499.3C365.7 498.3 388.3 497.7 411.2 496.5C434 495.3 457 493.7 480 492.3C503 491 526 490 548.8 493.5C571.7 497 594.3 505 617.2 507.3C640 509.7 663 506.3 685.8 505.8C708.7 505.3 731.3 507.7 754.2 505C777 502.3 800 494.7 822.8 494.5C845.7 494.3 868.3 501.7 891.2 502.8C914 504 937 499 948.5 496.5L960 494L960 541L948.5 541C937 541 914 541 891.2 541C868.3 541 845.7 541 822.8 541C800 541 777 541 754.2 541C731.3 541 708.7 541 685.8 541C663 541 640 541 617.2 541C594.3 541 571.7 541 548.8 541C526 541 503 541 480 541C457 541 434 541 411.2 541C388.3 541 365.7 541 342.8 541C320 541 297 541 274.2 541C251.3 541 228.7 541 205.8 541C183 541 160 541 137.2 541C114.3 541 91.7 541 68.8 541C46 541 23 541 11.5 541L0 541Z" fill="#1657ae"></path></svg>